<svg width="16" height="18" viewBox="0 0 16 18" fill="none" xmlns="http://www.w3.org/2000/svg">
<path d="M7.99967 17.9664C7.09134 17.9664 6.19134 17.6997 5.48301 17.1747L1.89967 14.4997C0.949674 13.7914 0.208008 12.308 0.208008 11.133V4.93304C0.208008 3.64971 1.14967 2.28304 2.35801 1.83304L6.51634 0.274707C7.34134 -0.0336263 8.64134 -0.0336263 9.46634 0.274707L13.6247 1.83304C14.833 2.28304 15.7747 3.64971 15.7747 4.93304V11.1247C15.7747 12.308 15.033 13.783 14.083 14.4914L10.4997 17.1664C9.80801 17.6997 8.90801 17.9664 7.99967 17.9664ZM6.95801 1.44971L2.79967 3.00804C2.09134 3.27471 1.46634 4.17471 1.46634 4.94137V11.133C1.46634 11.9247 2.02467 13.033 2.64967 13.4997L6.23301 16.1747C7.19134 16.8914 8.80801 16.8914 9.77467 16.1747L13.358 13.4997C13.9913 13.0247 14.5413 11.9247 14.5413 11.133V4.93304C14.5413 4.17471 13.9163 3.27471 13.208 2.99971L9.04967 1.44137C8.48301 1.24137 7.51634 1.24137 6.95801 1.44971Z" fill="#17CA5E"/>
<path d="M6.88353 10.8586C6.72519 10.8586 6.56686 10.8003 6.44186 10.6753L5.1002 9.33359C4.85853 9.09193 4.85853 8.69193 5.1002 8.45026C5.34186 8.20859 5.74186 8.20859 5.98353 8.45026L6.88353 9.35026L10.0252 6.20859C10.2669 5.96693 10.6669 5.96693 10.9085 6.20859C11.1502 6.45026 11.1502 6.85026 10.9085 7.09193L7.32519 10.6753C7.20019 10.8003 7.04186 10.8586 6.88353 10.8586Z" fill="#17CA5E"/>
</svg>
